<svg width="247" height="247" viewBox="0 0 247 247" fill="none" xmlns="http://www.w3.org/2000/svg">
<path d="M123.5 247C191.707 247 247 191.707 247 123.5C247 55.2928 191.707 0 123.5 0C55.2928 0 0 55.2928 0 123.5C0 191.707 55.2928 247 123.5 247Z" fill="url(#paint0_linear_43_453)"/>
<path d="M123.5 226.417C66.7522 226.417 20.5833 180.248 20.5833 123.5C20.5833 66.7523 66.7522 20.5836 123.5 20.5836C180.25 20.5836 226.417 66.7523 226.417 123.5C226.417 180.248 180.25 226.417 123.5 226.417Z" fill="url(#paint1_linear_43_453)"/>
<path opacity="0.3" d="M129.771 84.4789V179.585C147.933 171.512 167.19 168.566 185.25 171.151C185.25 139.449 185.25 107.747 185.25 76.0449C167.19 73.4601 147.933 76.4071 129.771 84.4789ZM175.349 156.565C163.135 154.821 150.204 156.953 137.948 162.738L135.889 158.376C149.001 152.186 162.884 149.907 176.033 151.791L175.349 156.565ZM175.349 137.228C163.135 135.483 150.204 137.614 137.948 143.399L135.889 139.037C149.001 132.847 162.88 130.574 176.033 132.453L175.349 137.228ZM175.349 117.888C163.135 116.144 150.204 118.277 137.948 124.061L135.889 119.699C149.001 113.508 162.884 111.232 176.033 113.113L175.349 117.888ZM175.349 98.5499C163.135 96.8055 150.204 98.9387 137.948 104.723L135.889 100.36C149.001 94.1698 162.884 91.893 176.033 93.7754L175.349 98.5499Z" fill="black"/>
<path opacity="0.3" d="M69.4688 76.0449C69.4688 107.747 69.4688 139.449 69.4688 171.151C87.5288 168.566 106.785 171.513 124.947 179.585V84.4789C106.785 76.4071 87.5288 73.4601 69.4688 76.0449ZM116.771 162.738C104.516 156.953 91.5861 154.822 79.3691 156.565L78.686 151.791C91.8418 149.911 105.721 152.185 118.83 158.376L116.771 162.738ZM116.771 143.399C104.515 137.615 91.5861 135.487 79.3691 137.228L78.686 132.453C91.8349 130.574 105.719 132.847 118.83 139.037L116.771 143.399ZM116.771 124.061C104.516 118.274 91.5861 116.145 79.3691 117.888L78.686 113.113C91.8418 111.23 105.721 113.509 118.83 119.699L116.771 124.061ZM118.83 100.36L116.771 104.723C104.516 98.9374 91.5861 96.8093 79.3691 98.5499L78.686 93.7754C91.8418 91.893 105.721 94.1711 118.83 100.36Z" fill="black"/>
<path d="M125.912 80.6195V175.726C144.074 167.653 163.331 164.706 181.391 167.291C181.39 135.589 181.39 103.887 181.391 72.1855C163.331 69.6007 144.074 72.5478 125.912 80.6195ZM171.49 152.706C159.275 150.962 146.344 153.094 134.088 158.879L132.029 154.516C145.142 148.327 159.024 146.048 172.173 147.931L171.49 152.706ZM171.49 133.368C159.275 131.624 146.344 133.754 134.088 139.54L132.029 135.177C145.142 128.988 159.021 126.715 172.173 128.593L171.49 133.368ZM171.49 114.029C159.275 112.284 146.344 114.417 134.088 120.202L132.029 115.839C145.142 109.649 159.024 107.373 172.173 109.254L171.49 114.029ZM171.49 94.6905C159.275 92.9461 146.344 95.0793 134.088 100.863L132.029 96.5008C145.142 90.3104 159.024 88.0336 172.173 89.916L171.49 94.6905Z" fill="white"/>
<path d="M65.6094 72.1855C65.6094 103.887 65.6094 135.589 65.6094 167.291C83.6694 164.706 102.926 167.653 121.088 175.726V80.6195C102.926 72.5478 83.6694 69.6007 65.6094 72.1855ZM112.912 158.879C100.657 153.094 87.7267 150.963 75.5098 152.706L74.8266 147.931C87.9824 146.052 101.862 148.326 114.97 154.516L112.912 158.879ZM112.912 139.54C100.656 133.755 87.7267 131.627 75.5098 133.368L74.8266 128.593C87.9755 126.715 101.859 128.988 114.97 135.177L112.912 139.54ZM112.912 120.202C100.657 114.415 87.7267 112.285 75.5098 114.029L74.8266 109.254C87.9824 107.371 101.862 109.649 114.97 115.839L112.912 120.202ZM114.97 96.5008L112.912 100.863C100.657 95.078 87.7267 92.95 75.5098 94.6905L74.8266 89.916C87.9824 88.0336 101.862 90.3117 114.97 96.5008Z" fill="white"/>
<defs>
<linearGradient id="paint0_linear_43_453" x1="1.8332e-06" y1="123.5" x2="247" y2="123.5" gradientUnits="userSpaceOnUse">
<stop stop-color="#D6A172"/>
<stop offset="1" stop-color="#5F330B"/>
</linearGradient>
<linearGradient id="paint1_linear_43_453" x1="20.5833" y1="123.5" x2="226.417" y2="123.5" gradientUnits="userSpaceOnUse">
<stop stop-color="#935218"/>
<stop offset="1" stop-color="#D6A172"/>
</linearGradient>
</defs>
</svg>
